<?xml version="1.0" standalone="no"?><!DOCTYPE svg PUBLIC "-//W3C//DTD SVG 1.1//EN" "http://www.w3.org/Graphics/SVG/1.1/DTD/svg11.dtd"><svg t="1715653418793" class="icon" viewBox="0 0 1024 1024" version="1.1" xmlns="http://www.w3.org/2000/svg" p-id="19017" xmlns:xlink="http://www.w3.org/1999/xlink" width="200" height="200"><path d="M0 0m219.428571 0l585.142858 0q219.428571 0 219.428571 219.428571l0 585.142858q0 219.428571-219.428571 219.428571l-585.142858 0q-219.428571 0-219.428571-219.428571l0-585.142858q0-219.428571 219.428571-219.428571Z" fill="#FF9500" p-id="19018"></path><path d="M713.142857 256a54.857143 54.857143 0 0 1 54.857143 54.857143v394.605714a54.857143 54.857143 0 0 1-54.857143 54.857143H379.52V310.857143a54.857143 54.857143 0 0 1 54.857143-54.857143H713.142857z m-149.211428 360.228571a26.514286 26.514286 0 0 0-26.88 26.788572c0 15.177143 11.885714 27.245714 26.88 27.245714 14.957714 0 26.422857-12.068571 26.422857-27.245714s-11.465143-26.788571-26.441143-26.788572z m5.12-270.171428c-51.017143 0-85.705143 30.043429-100.498286 78.061714l-1.609143 5.668572-0.64 3.510857-0.182857 1.334857-0.128 2.450286c0 13.933714 12.964571 23.277714 26.075428 23.277714 10.697143 0 19.657143-6.893714 23.149715-17.700572l0.749714-2.779428c7.826286-33.371429 25.892571-48.457143 52.699429-48.457143 29.001143 0 48.969143 17.481143 48.969142 44.470857 0 22.857143-6.601143 34.230857-25.453714 47.579429l-5.302857 3.620571-13.970286 8.96-4.406857 2.596572c-17.298286 11.062857-26.24 25.325714-27.355428 45.385142l-0.109715 4.388572v3.968l1.170286 23.844571c0.548571 13.549714 8.118857 20.827429 20.205714 20.827429 11.264 0 18.962286-5.814857 20.973715-17.170286l0.384-2.944 2.340571-24.886857c0.713143-6.930286 4.224-12.946286 9.142857-16.475429l2.157714-1.371428 3.931429-2.596572c47.780571-26.112 65.718857-49.993143 65.718857-95.323428 0-51.858286-39.771429-90.24-98.011428-90.24z" fill="#FFFFFF" p-id="19019"></path><path d="M397.805714 400.073143v360.228571l-34.816 0.018286c-48.987429 0-88.704-32.256-88.704-72.045714V443.940571c0-24.210286 24.173714-43.849143 53.997715-43.849142l69.522285-0.018286z m-11.337143 43.776H323.291429v244.333714c0 15.597714 14.153143 28.251429 31.597714 28.251429 16.347429 0 29.805714-11.117714 31.433143-25.362286l0.164571-2.889143V443.849143z" fill="#FFFFFF" p-id="19020"></path></svg>